
<svg width="154" height="29" viewBox="0 0 154 29" fill="none" xmlns="http://www.w3.org/2000/svg">
<path d="M0.0859375 2H6.34375L12.9531 18.125H13.2344L19.8437 2H26.1016V26H21.1797V10.3789H20.9805L14.7695 25.8828H11.418L5.20703 10.3203H5.00781V26H0.0859375V2ZM32.6813 26.3398C31.5329 26.3398 30.5094 26.1406 29.611 25.7422C28.7125 25.3359 28.0016 24.7383 27.4782 23.9492C26.9625 23.1523 26.7047 22.1602 26.7047 20.9727C26.7047 19.9727 26.8883 19.1328 27.2555 18.4531C27.6227 17.7734 28.1227 17.2266 28.7555 16.8125C29.3883 16.3984 30.1071 16.0859 30.9118 15.875C31.7243 15.6641 32.5758 15.5156 33.4664 15.4297C34.5133 15.3203 35.3571 15.2187 35.9977 15.125C36.6383 15.0234 37.1032 14.875 37.3922 14.6797C37.6813 14.4844 37.8258 14.1953 37.8258 13.8125V13.7422C37.8258 13 37.5914 12.4258 37.1227 12.0195C36.6618 11.6133 36.0055 11.4102 35.1539 11.4102C34.2555 11.4102 33.5407 11.6094 33.0094 12.0078C32.4782 12.3984 32.1266 12.8906 31.9547 13.4844L27.3375 13.1094C27.5719 12.0156 28.0329 11.0703 28.7204 10.2734C29.4079 9.46875 30.2946 8.85156 31.3805 8.42187C32.4743 7.98437 33.7399 7.76563 35.1774 7.76563C36.1774 7.76563 37.1344 7.88281 38.0485 8.11719C38.9704 8.35156 39.7868 8.71484 40.4977 9.20703C41.2164 9.69922 41.7829 10.332 42.1969 11.1055C42.611 11.8711 42.818 12.7891 42.818 13.8594V26H38.0836V23.5039H37.943C37.6539 24.0664 37.2672 24.5625 36.7829 24.9922C36.2985 25.4141 35.7164 25.7461 35.0368 25.9883C34.3571 26.2227 33.5719 26.3398 32.6813 26.3398ZM34.111 22.8945C34.8454 22.8945 35.4938 22.75 36.0563 22.4609C36.6188 22.1641 37.0602 21.7656 37.3805 21.2656C37.7008 20.7656 37.861 20.1992 37.861 19.5664V17.6563C37.7047 17.7578 37.4899 17.8516 37.2164 17.9375C36.9508 18.0156 36.65 18.0898 36.3141 18.1602C35.9782 18.2227 35.6422 18.2812 35.3063 18.3359C34.9704 18.3828 34.6657 18.4258 34.3922 18.4648C33.8063 18.5508 33.2946 18.6875 32.8571 18.875C32.4196 19.0625 32.0797 19.3164 31.8375 19.6367C31.5954 19.9492 31.4743 20.3398 31.4743 20.8086C31.4743 21.4883 31.7204 22.0078 32.2125 22.3672C32.7125 22.7187 33.3454 22.8945 34.111 22.8945ZM53.7307 8V11.75H42.6214V8H53.7307ZM45.1643 26V6.69922C45.1643 5.39453 45.4182 4.3125 45.9261 3.45312C46.4417 2.59375 47.1448 1.94922 48.0354 1.51953C48.9261 1.08984 49.9378 0.874998 51.0706 0.874998C51.8362 0.874998 52.5354 0.933593 53.1682 1.05078C53.8089 1.16797 54.2854 1.27344 54.5979 1.36719L53.7073 5.11719C53.512 5.05469 53.2698 4.99609 52.9807 4.9414C52.6995 4.88672 52.4104 4.85938 52.1136 4.85938C51.3792 4.85938 50.8675 5.03125 50.5784 5.375C50.2893 5.71094 50.1448 6.18359 50.1448 6.79297V26H45.1643ZM57.6913 26L52.7929 8H57.8437L60.6327 20.0937H60.7968L63.703 8H68.6601L71.6132 20.0234H71.7655L74.5077 8H79.5468L74.6601 26H69.3749L66.2812 14.6797H66.0585L62.9648 26H57.6913ZM79.6636 26V2H84.6558V11.0234H84.8082C85.0269 10.5391 85.3433 10.0469 85.7574 9.54687C86.1793 9.03906 86.7261 8.61719 87.398 8.28125C88.0777 7.9375 88.9214 7.76563 89.9293 7.76563C91.2418 7.76563 92.4527 8.10938 93.5621 8.79688C94.6714 9.47656 95.5582 10.5039 96.2222 11.8789C96.8863 13.2461 97.2183 14.9609 97.2183 17.0234C97.2183 19.0312 96.8941 20.7266 96.2457 22.1094C95.605 23.4844 94.73 24.5273 93.6207 25.2383C92.5191 25.9414 91.2847 26.293 89.9175 26.293C88.9488 26.293 88.1246 26.1328 87.4449 25.8125C86.773 25.4922 86.2222 25.0898 85.7925 24.6055C85.3629 24.1133 85.0347 23.6172 84.8082 23.1172H84.5855V26H79.6636ZM84.5504 17C84.5504 18.0703 84.6988 19.0039 84.9957 19.8008C85.2925 20.5977 85.7222 21.2187 86.2847 21.6641C86.8472 22.1016 87.5308 22.3203 88.3355 22.3203C89.148 22.3203 89.8355 22.0977 90.398 21.6523C90.9605 21.1992 91.3863 20.5742 91.6754 19.7773C91.9722 18.9727 92.1207 18.0469 92.1207 17C92.1207 15.9609 91.9761 15.0469 91.6871 14.2578C91.398 13.4687 90.9722 12.8516 90.4097 12.4062C89.8472 11.9609 89.1558 11.7383 88.3355 11.7383C87.523 11.7383 86.8355 11.9531 86.273 12.3828C85.7183 12.8125 85.2925 13.4219 84.9957 14.2109C84.6988 15 84.5504 15.9297 84.5504 17ZM102.902 15.5938V26H97.9094V2H102.761V11.1758H102.972C103.378 10.1133 104.034 9.28125 104.941 8.67969C105.847 8.07031 106.984 7.76563 108.351 7.76563C109.601 7.76563 110.691 8.03906 111.62 8.58594C112.558 9.125 113.284 9.90234 113.8 10.918C114.323 11.9258 114.581 13.1328 114.573 14.5391V26H109.581V15.4297C109.589 14.3203 109.308 13.457 108.738 12.8398C108.175 12.2227 107.386 11.9141 106.37 11.9141C105.691 11.9141 105.089 12.0586 104.566 12.3477C104.05 12.6367 103.644 13.0586 103.347 13.6133C103.058 14.1602 102.909 14.8203 102.902 15.5938ZM123.775 18.3636V19.9545H119.176V18.3636H123.775ZM120.22 16.5341H122.338V23.6534C122.338 23.849 122.368 24.0014 122.427 24.1108C122.487 24.2169 122.57 24.2914 122.676 24.3345C122.785 24.3776 122.911 24.3991 123.054 24.3991C123.153 24.3991 123.253 24.3909 123.352 24.3743C123.451 24.3544 123.528 24.3395 123.581 24.3295L123.914 25.9055C123.808 25.9387 123.659 25.9768 123.466 26.0199C123.274 26.0663 123.04 26.0945 122.765 26.1044C122.255 26.1243 121.808 26.0563 121.423 25.9006C121.042 25.7448 120.745 25.5028 120.533 25.1747C120.321 24.8466 120.217 24.4323 120.22 23.9318V16.5341ZM124.034 26V18.3636H126.088V19.696H126.167C126.306 19.2221 126.54 18.8641 126.868 18.6222C127.196 18.3769 127.574 18.2543 128.002 18.2543C128.108 18.2543 128.222 18.2609 128.345 18.2741C128.467 18.2874 128.575 18.3056 128.668 18.3288V20.2081C128.568 20.1783 128.431 20.1518 128.255 20.1286C128.079 20.1054 127.919 20.0938 127.773 20.0938C127.461 20.0938 127.183 20.1617 126.938 20.2976C126.696 20.4302 126.503 20.6158 126.361 20.8544C126.222 21.093 126.152 21.3681 126.152 21.6797V26H124.034ZM128.643 26V18.3636H130.761V26H128.643ZM129.707 17.3793C129.392 17.3793 129.122 17.2749 128.896 17.0661C128.674 16.8539 128.563 16.6004 128.563 16.3054C128.563 16.0137 128.674 15.7635 128.896 15.5547C129.122 15.3426 129.392 15.2365 129.707 15.2365C130.022 15.2365 130.29 15.3426 130.512 15.5547C130.737 15.7635 130.85 16.0137 130.85 16.3054C130.85 16.6004 130.737 16.8539 130.512 17.0661C130.29 17.2749 130.022 17.3793 129.707 17.3793ZM133.455 21.5852V26H131.337V18.3636H133.356V19.7109H133.445C133.614 19.2668 133.898 18.9155 134.295 18.657C134.693 18.3951 135.175 18.2642 135.742 18.2642C136.272 18.2642 136.735 18.3802 137.129 18.6122C137.524 18.8442 137.83 19.1757 138.049 19.6065C138.268 20.0341 138.377 20.5445 138.377 21.1378V26H136.259V21.5156C136.262 21.0483 136.143 20.6837 135.901 20.4219C135.659 20.1567 135.326 20.0241 134.902 20.0241C134.617 20.0241 134.365 20.0855 134.146 20.2081C133.931 20.3307 133.762 20.5097 133.639 20.745C133.52 20.977 133.458 21.2571 133.455 21.5852ZM138.926 26V18.3636H141.044V26H138.926ZM139.99 17.3793C139.675 17.3793 139.405 17.2749 139.18 17.0661C138.958 16.8539 138.847 16.6004 138.847 16.3054C138.847 16.0137 138.958 15.7635 139.18 15.5547C139.405 15.3426 139.675 15.2365 139.99 15.2365C140.305 15.2365 140.573 15.3426 140.795 15.5547C141.021 15.7635 141.134 16.0137 141.134 16.3054C141.134 16.6004 141.021 16.8539 140.795 17.0661C140.573 17.2749 140.305 17.3793 139.99 17.3793ZM145.682 18.3636V19.9545H141.084V18.3636H145.682ZM142.128 16.5341H144.246V23.6534C144.246 23.849 144.275 24.0014 144.335 24.1108C144.395 24.2169 144.478 24.2914 144.584 24.3345C144.693 24.3776 144.819 24.3991 144.962 24.3991C145.061 24.3991 145.16 24.3909 145.26 24.3743C145.359 24.3544 145.436 24.3395 145.489 24.3295L145.822 25.9055C145.716 25.9387 145.566 25.9768 145.374 26.0199C145.182 26.0663 144.948 26.0945 144.673 26.1044C144.163 26.1243 143.715 26.0563 143.331 25.9006C142.95 25.7448 142.653 25.5028 142.441 25.1747C142.229 24.8466 142.124 24.4323 142.128 23.9318V16.5341ZM147.25 28.8636C146.981 28.8636 146.729 28.8421 146.494 28.799C146.262 28.7592 146.07 28.7079 145.917 28.6449L146.394 27.0639C146.643 27.1402 146.867 27.1816 147.066 27.1882C147.268 27.1948 147.442 27.1484 147.588 27.049C147.737 26.9496 147.858 26.7805 147.951 26.5419L148.075 26.2188L145.336 18.3636H147.563L149.144 23.9716H149.223L150.819 18.3636H153.061L150.093 26.8253C149.951 27.2363 149.757 27.5942 149.512 27.8991C149.27 28.2074 148.963 28.4444 148.592 28.6101C148.221 28.7791 147.773 28.8636 147.25 28.8636Z" fill="white"/>
</svg>
